# xmcd
#
# Track frame offsets:
#	150
#	24239
#	39748
#	76628
#	101538
#	121145
#	150870
#	176320
#	202873
#	222650
#	237082
#
# Disc length: 3373 seconds
#
# Revision: 1
# Processed by: cddbd v1.5.2PL0 Copyright (c) Steve Scherf et al.
# Submitted via: audiograbber 1.83.01
#
DISCID=760d2b0b
DTITLE=Brad Wilson - Live - Power Blues Guitar
DYEAR=1900
DGENRE=Blues
TTITLE0=Pride And Joy
TTITLE1=All Kinds Of Fools
TTITLE2=I Can't Quit You Babe
TTITLE3=Sweet Home Chicago
TTITLE4=Mojo Workin'
TTITLE5=Stormy Monday
TTITLE6=I'm Tore Down
TTITLE7=She Moves Me
TTITLE8=Bo Didley
TTITLE9=Born Under A Bad Sign
TTITLE10=Slide On Over
EXTD=
EXTT0=
EXTT1=
EXTT2=
EXTT3=
EXTT4=
EXTT5=
EXTT6=
EXTT7=
EXTT8=
EXTT9=
EXTT10=
PLAYORDER=
